<?xml version="1.0" standalone="no"?>
<!DOCTYPE svg PUBLIC "-//W3C//DTD SVG 20010904//EN"
 "http://www.w3.org/TR/2001/REC-SVG-20010904/DTD/svg10.dtd">
<svg version="1.0" xmlns="http://www.w3.org/2000/svg"
 width="570.000000pt" height="570.000000pt" viewBox="0 0 570.000000 570.000000"
 preserveAspectRatio="xMidYMid meet">

<g transform="translate(0.000000,570.000000) scale(0.100000,-0.100000)"
fill="#000000" stroke="none">
<path d="M0 2850 l0 -2850 2850 0 2850 0 0 2850 0 2850 -2850 0 -2850 0 0
-2850z m2978 1550 c686 -61 1248 -551 1391 -1214 155 -715 -194 -1429 -853
-1742 -423 -201 -943 -196 -1357 11 -319 160 -552 395 -704 710 -70 144 -95
216 -125 352 -107 491 29 1001 367 1380 250 281 636 471 1018 503 133 11 140
11 263 0z"/>
<path d="M2705 4384 c-615 -66 -1127 -476 -1315 -1054 -60 -183 -74 -278 -74
-485 1 -147 5 -199 23 -283 42 -201 102 -353 200 -515 225 -371 614 -635 1047
-713 131 -23 394 -24 519 -1 574 104 1028 494 1205 1037 56 169 73 285 74 480
0 194 -18 309 -74 480 -78 239 -191 421 -375 605 -223 225 -483 364 -793 426
-95 19 -350 32 -437 23z m-22 -86 c2 -7 -3 -18 -12 -24 -13 -10 -13 -19 3 -85
21 -88 33 -112 52 -105 9 3 14 -1 14 -13 0 -15 -15 -22 -66 -35 -37 -9 -69
-14 -72 -11 -3 3 0 16 7 29 11 20 10 37 -5 101 -22 94 -32 79 -33 -52 l-1 -91
-30 -11 c-34 -11 -34 -11 -109 122 -18 32 -35 57 -37 55 -4 -5 31 -142 40
-157 4 -6 14 -11 22 -11 8 0 14 -6 14 -14 0 -19 -97 -43 -113 -27 -8 8 -6 14
7 24 16 12 16 17 -5 100 -17 68 -25 87 -39 87 -10 0 -20 7 -24 15 -5 14 3 17
125 51 11 3 27 -17 55 -65 45 -79 52 -75 53 29 l1 65 63 16 c79 21 84 22 90 7z
m269 6 l36 -6 27 -109 c20 -78 33 -112 46 -120 11 -5 19 -17 19 -26 0 -13 -8
-15 -52 -9 -29 3 -65 6 -80 6 -18 0 -28 5 -28 15 0 8 7 15 16 15 11 0 14 8 12
28 -3 24 -7 27 -43 27 -34 0 -40 -3 -43 -22 -2 -13 1 -23 7 -23 6 0 11 -10 11
-21 0 -19 -4 -21 -37 -15 -21 3 -46 6 -55 6 -24 0 -23 18 1 38 11 10 38 63 62
120 23 56 47 102 53 102 6 0 27 -3 48 -6z m462 -127 c19 -26 19 -30 5 -55 -8
-15 -24 -28 -37 -30 -18 -3 -20 -6 -10 -22 9 -14 9 -28 1 -54 -12 -38 -1 -58
16 -29 7 13 13 15 21 7 8 -8 5 -18 -12 -39 -20 -23 -29 -26 -55 -21 -17 4 -39
16 -48 26 -16 18 -16 25 -5 66 12 43 12 48 -5 60 -29 22 -41 17 -52 -21 -9
-27 -8 -37 3 -46 15 -12 19 -39 7 -39 -5 0 -38 10 -75 22 -53 17 -68 26 -68
41 0 12 5 17 14 14 20 -8 28 5 60 93 24 66 25 76 11 86 -8 6 -13 18 -9 27 9
25 209 -48 238 -86z m221 -98 c43 -27 62 -45 58 -54 -3 -9 -13 -13 -27 -10
-18 5 -29 -7 -69 -71 -38 -61 -45 -79 -36 -90 9 -11 9 -18 1 -26 -7 -7 -28 0
-71 27 -64 38 -66 41 -52 64 6 9 11 10 15 2 11 -17 24 -5 73 72 34 53 43 75
36 86 -9 15 -7 41 3 41 3 0 33 -18 69 -41z m-1591 -94 c68 -33 104 -122 73
-181 -24 -47 -77 -93 -120 -105 -51 -13 -97 2 -136 46 -56 64 -50 133 17 198
59 57 108 70 166 42z m946 5 c485 -63 873 -416 982 -894 29 -123 30 -353 4
-476 -50 -232 -150 -416 -320 -586 -308 -308 -759 -411 -1182 -269 -290 97
-548 336 -675 624 -190 431 -95 938 241 1271 252 252 606 374 950 330z m860
-199 c-17 -52 -28 -96 -27 -98 2 -1 25 20 52 47 39 39 46 52 37 63 -10 11 -9
17 2 26 10 9 20 3 45 -28 37 -45 39 -56 12 -56 -10 -1 -53 -32 -95 -70 -43
-39 -81 -71 -85 -73 -4 -1 -19 11 -35 27 l-27 29 27 88 c14 49 29 96 32 104 3
8 -17 -5 -44 -30 -30 -28 -49 -54 -49 -67 -1 -44 -19 -45 -59 -4 -40 41 -41
65 -3 56 31 -8 156 117 139 138 -9 10 -9 16 0 25 10 10 23 2 60 -35 l47 -48
-29 -94z m-2146 -47 c9 -3 13 -11 10 -16 -4 -6 31 -48 77 -94 l83 -83 -17 -37
c-19 -39 -26 -40 -107 -18 -23 6 -22 3 13 -33 l39 -41 -17 -33 c-10 -19 -18
-35 -19 -36 -1 -1 -51 11 -111 27 -68 17 -116 25 -126 20 -8 -5 -21 -5 -29 0
-10 6 -7 18 15 57 15 26 29 49 30 51 6 7 35 -12 35 -22 0 -7 26 -19 58 -26 31
-7 64 -15 72 -18 8 -3 -5 16 -30 42 -36 38 -50 46 -70 42 -47 -9 -51 6 -19 62
32 55 55 67 61 30 2 -17 16 -26 63 -40 33 -10 64 -18 70 -18 5 0 -13 23 -40
50 -31 31 -56 49 -66 47 -36 -10 -42 9 -18 52 13 22 25 41 26 41 1 0 8 -3 17
-6z m2439 -219 c29 -55 53 -103 55 -107 2 -4 -16 -17 -39 -28 -34 -18 -43 -19
-50 -8 -12 18 -11 24 6 38 19 16 19 41 -1 84 l-17 34 -33 -16 c-19 -9 -34 -19
-34 -23 0 -13 29 -30 46 -27 38 7 22 -23 -27 -47 -41 -21 -53 -24 -60 -14 -5
9 -3 17 6 22 18 10 20 47 3 47 -7 -1 -27 -9 -45 -18 l-32 -17 26 -44 c24 -41
27 -43 63 -37 30 5 39 2 44 -10 4 -9 5 -18 4 -19 -9 -8 -90 -46 -92 -43 -2 2
-31 56 -66 121 -41 79 -59 122 -52 129 6 6 16 6 29 -2 16 -11 31 -6 97 30 61
33 77 47 73 61 -6 24 15 31 31 10 8 -9 37 -61 65 -116z m-2595 -250 c12 -11
-10 -35 -32 -35 -21 0 -56 -35 -44 -44 6 -6 151 -36 170 -36 10 0 22 9 26 20
5 13 11 16 21 11 11 -7 10 -22 -4 -90 -12 -53 -23 -81 -31 -81 -8 0 -14 10
-14 24 0 22 -7 26 -91 45 -50 12 -92 21 -95 21 -2 0 -4 -11 -4 -25 0 -15 8
-29 23 -36 29 -16 28 -14 22 -31 -5 -12 -14 -13 -51 -5 -52 12 -51 -8 -12 176
l21 103 45 -6 c25 -3 47 -8 50 -11z m2681 -19 c34 -18 51 -54 51 -112 0 -25 5
-55 11 -66 13 -25 5 -34 -43 -42 -35 -6 -38 -5 -38 17 0 14 6 27 14 30 34 13
24 112 -11 105 -13 -2 -20 -21 -28 -81 -12 -84 -24 -103 -71 -113 -26 -5 -38
-1 -64 23 -29 26 -34 37 -37 89 -2 32 -9 69 -16 82 -12 25 1 42 35 42 9 0 23
3 32 6 26 10 32 -24 8 -46 -38 -36 -41 -101 -5 -114 25 -10 31 2 42 84 14 103
50 132 120 96z m-2655 -406 l41 0 -32 -22 c-35 -25 -38 -33 -23 -73 11 -28 3
-27 -33 3 -16 14 -20 13 -47 -7 -31 -22 -37 -15 -20 24 6 16 1 26 -23 47 l-32
27 42 1 c41 0 42 1 49 38 l8 37 14 -37 c14 -35 18 -38 56 -38z m2690 0 l41 -1
-32 -27 c-24 -21 -29 -31 -23 -47 17 -40 11 -47 -20 -25 l-30 21 -32 -22 c-27
-20 -31 -20 -25 -5 20 50 18 61 -15 84 l-33 22 42 0 c37 0 42 3 53 33 l13 32
10 -32 c9 -30 13 -33 51 -33z m-2610 -221 c7 -41 -7 -75 -25 -64 -4 3 -20 3
-34 -1 -20 -5 -24 -9 -13 -16 10 -7 8 -8 -7 -6 -28 4 -32 44 -6 51 24 6 28 27
6 27 -8 0 -15 -4 -15 -10 0 -5 -4 -10 -9 -10 -12 0 -20 59 -9 66 4 3 8 1 8 -5
0 -12 59 -4 74 10 15 13 23 2 30 -42z m2428 21 c-26 -25 -28 -36 -6 -44 11 -4
14 -1 9 13 -5 15 -1 18 21 13 26 -5 26 -6 9 -18 -18 -13 -18 -14 3 -14 15 0
22 6 22 20 0 11 -4 20 -10 20 -5 0 -10 5 -10 10 0 6 10 10 21 10 20 0 21 -3
15 -52 -8 -60 -15 -75 -27 -57 -4 7 -26 13 -48 13 -44 1 -45 3 -35 69 6 31 10
37 32 37 l26 0 -22 -20z m-2388 -183 c5 -20 2 -29 -9 -33 -20 -8 -32 3 -18 17
15 15 4 49 -14 42 -12 -5 -12 -7 -1 -14 11 -7 10 -11 -2 -19 -8 -5 -21 -10
-29 -10 -11 0 -11 3 -1 15 10 12 10 15 -4 15 -24 0 -20 -37 5 -43 24 -6 17
-27 -10 -27 -13 0 -22 15 -33 55 -14 51 -14 55 1 50 9 -2 32 3 51 13 l35 18
11 -26 c6 -14 14 -37 18 -53z m2376 77 c0 -4 -7 -12 -17 -19 -14 -11 -12 -13
17 -23 25 -9 36 -9 48 0 13 11 14 8 7 -22 -8 -38 -25 -64 -25 -38 0 9 -10 18
-22 22 -40 10 -50 7 -43 -13 5 -16 2 -18 -15 -14 -24 6 -24 7 -4 66 11 34 21
47 35 47 10 0 19 -3 19 -6z m-2339 -174 c12 -25 14 -37 5 -42 -19 -13 -25 -9
-23 18 1 15 -3 29 -10 31 -8 3 -10 -6 -7 -29 4 -24 1 -38 -10 -47 -23 -19 -45
-7 -62 34 -15 38 -12 55 11 55 11 0 13 -8 9 -30 -4 -19 -2 -30 5 -30 6 0 11
15 11 33 0 19 3 37 7 41 16 16 49 -1 64 -34z m2369 27 c0 -4 -5 -18 -11 -29
-9 -16 -13 -18 -20 -7 -6 10 -11 11 -20 2 -13 -13 -3 -37 12 -28 10 7 12 -6 3
-29 -4 -12 -16 -6 -50 28 -61 58 -54 77 27 74 33 -1 59 -6 59 -11z m-66 -151
c-5 -14 -15 -16 -59 -11 -32 4 -55 3 -59 -3 -8 -13 50 -56 64 -47 14 9 12 -18
-3 -39 -13 -17 -15 -17 -42 8 -15 14 -37 26 -47 26 -19 0 -18 3 7 48 34 59 46
71 52 55 3 -7 16 -13 30 -13 25 0 25 1 9 19 -10 11 -24 17 -32 14 -17 -6 -18
1 -4 27 9 18 14 16 50 -24 27 -29 38 -49 34 -60z m-2249 14 c14 -27 23 -50 21
-50 -2 0 -12 -3 -21 -7 -14 -5 -16 -2 -10 15 8 26 3 27 -35 7 -16 -8 -30 -23
-32 -32 -3 -14 -8 -11 -21 14 -20 38 -21 46 -4 40 15 -5 67 20 67 33 0 6 -7
10 -16 10 -8 0 -12 5 -9 10 14 22 36 7 60 -40z m60 -96 c30 -33 32 -57 5 -84
-28 -28 -64 -25 -89 6 -28 36 -26 58 5 83 35 28 50 26 79 -5z m2045 -9 c10
-13 9 -15 -11 -15 l-24 -1 28 -24 c15 -13 34 -22 42 -19 20 8 18 -6 -4 -33
-22 -26 -31 -29 -31 -10 0 7 -14 21 -32 31 -31 19 -31 19 -25 -3 6 -23 5 -24
-17 -15 -22 8 -20 15 14 62 33 46 41 50 60 27z m-1961 -100 c17 -20 31 -39 31
-44 0 -11 -25 -32 -31 -26 -3 2 -10 -5 -17 -15 -9 -16 -9 -20 0 -20 9 0 9 -3
1 -11 -7 -7 -19 -9 -27 -6 -18 7 -22 42 -6 52 13 8 13 25 0 25 -6 0 -14 -10
-19 -21 -7 -21 -8 -21 -30 7 -21 27 -22 29 -4 32 23 5 64 42 57 53 -14 24 18
5 45 -26z m1903 -22 c40 -36 6 -103 -52 -103 -35 0 -64 36 -54 66 19 52 69 70
106 37z m-1785 -97 c17 -15 20 -22 12 -33 -16 -19 -29 -16 -29 6 0 25 -18 37
-33 22 -8 -8 -6 -11 6 -11 20 0 22 -11 5 -28 -17 -17 -28 -15 -21 4 4 12 2 15
-8 12 -26 -9 -16 -33 14 -33 28 1 36 -15 14 -33 -9 -8 -23 0 -55 29 -45 42
-49 49 -30 49 17 0 58 41 58 58 0 16 4 13 67 -42z m1691 -27 l31 -24 -25 -18
c-19 -14 -24 -15 -24 -4 0 8 -9 22 -20 32 -20 18 -20 18 -5 -18 8 -20 15 -39
15 -42 0 -11 -32 -4 -57 12 -26 17 -26 17 -12 -5 8 -12 20 -22 28 -22 11 0 10
-5 -4 -20 -18 -19 -18 -19 -35 13 -9 17 -27 37 -39 43 l-23 12 23 16 c29 20
43 20 59 1 18 -22 23 -12 8 20 -11 24 -10 29 12 45 24 18 25 18 32 1 3 -10 20
-29 36 -42z m-1523 -96 c43 -27 55 -51 28 -61 -8 -2 -13 5 -13 16 0 20 -23 36
-34 25 -12 -12 -6 -25 9 -19 19 7 19 -5 0 -30 -14 -18 -14 -18 -15 0 0 15 -3
16 -15 6 -22 -18 -7 -33 26 -26 31 6 32 5 23 -18 -8 -22 -17 -20 -70 13 -36
22 -43 31 -32 37 23 14 47 55 41 70 -7 20 0 18 52 -13z m-167 0 c-2 -10 -11
-19 -21 -21 -16 -3 -17 -1 -7 17 13 25 33 28 28 4z m1497 -33 c20 -38 10 -58
-43 -88 -37 -21 -41 -21 -39 -5 1 20 -30 73 -44 73 -17 0 -18 -19 -2 -59 14
-36 15 -44 3 -51 -10 -6 -26 -1 -48 17 l-34 26 7 -24 c4 -13 12 -25 16 -27 16
-6 10 -20 -11 -25 -15 -4 -20 0 -20 13 0 24 -21 70 -32 70 -4 0 -8 4 -8 9 0
17 52 23 69 8 32 -28 44 -31 32 -9 -6 11 -16 23 -23 26 -8 4 -9 8 -3 11 6 3
35 18 65 35 72 38 95 38 115 0z m-1241 -20 c21 -7 26 -16 26 -42 l1 -33 18 22
18 22 74 -25 c83 -29 105 -45 95 -69 -4 -12 -15 -16 -38 -13 -29 2 -33 0 -31
-20 3 -25 -4 -27 -44 -11 -24 9 -26 12 -11 20 9 5 19 23 23 40 7 32 -3 53 -20
41 -15 -10 -36 -62 -30 -73 4 -5 0 -9 -7 -9 -17 0 -58 29 -42 30 6 0 16 12 23
28 l13 27 -29 -27 c-43 -41 -56 -37 -49 15 6 40 6 41 -8 18 -7 -14 -12 -31 -9
-38 4 -11 1 -11 -22 -1 -15 7 -22 14 -16 16 17 6 43 62 37 78 -6 17 -5 17 28
4z m967 -92 c12 -18 29 -39 37 -45 19 -15 16 -19 -21 -28 -21 -6 -27 -4 -27 9
0 9 -7 16 -15 16 -18 0 -19 -12 -3 -28 8 -8 9 -12 1 -12 -6 0 -18 -2 -26 -5
-11 -5 -13 5 -9 52 4 52 14 72 34 73 4 0 17 -15 29 -32z m-623 -24 c42 -29 20
-104 -31 -104 -39 0 -67 28 -67 65 0 52 51 72 98 39z m458 -19 c3 -49 5 -56
15 -49 7 4 10 -1 7 -12 -5 -29 -36 -29 -49 0 -7 14 -16 26 -21 26 -12 0 -10
-28 4 -36 8 -5 6 -10 -8 -15 -29 -12 -60 -11 -48 1 12 12 6 80 -7 80 -5 0 -9
4 -9 9 0 13 28 19 75 18 32 -2 40 -6 41 -22z m-370 0 c-3 -8 -2 -25 3 -37 7
-19 8 -20 15 -3 3 10 4 26 1 36 -7 20 2 23 29 13 9 -3 13 -10 10 -15 -3 -5 -2
-19 2 -31 l7 -23 8 24 c5 12 7 26 4 31 -2 4 30 10 73 13 54 4 79 2 84 -6 12
-18 9 -27 -7 -27 -8 0 -15 5 -15 10 0 6 -9 10 -20 10 -11 0 -20 -7 -20 -15 0
-18 16 -20 23 -2 3 6 6 0 6 -15 1 -20 -3 -26 -14 -22 -9 4 -15 0 -15 -10 0
-20 39 -21 46 -1 9 21 24 19 24 -4 0 -21 -26 -31 -82 -31 -35 0 -52 14 -28 22
5 2 7 19 3 41 -7 48 -23 43 -44 -14 -19 -50 -44 -62 -58 -27 -7 17 -10 19 -10
6 -1 -11 -9 -18 -21 -18 -14 0 -22 11 -30 41 -6 22 -14 47 -17 55 -4 10 3 14
22 14 20 0 26 -4 21 -15z"/>
<path d="M2901 4217 c-16 -41 -14 -57 9 -57 21 0 24 16 10 60 l-7 25 -12 -28z"/>
<path d="M3270 4174 c-14 -37 -13 -43 15 -50 47 -12 77 44 36 66 -30 15 -41
12 -51 -16z"/>
<path d="M1908 3921 c-29 -24 -19 -60 35 -116 45 -46 81 -57 105 -33 22 22 12
56 -33 106 -52 57 -76 67 -107 43z"/>
<path d="M2620 3960 c-398 -85 -715 -367 -844 -753 -83 -249 -71 -548 33 -798
71 -170 215 -353 369 -469 373 -278 905 -292 1295 -33 90 60 222 186 286 272
329 448 284 1074 -104 1465 -167 169 -370 277 -603 322 -105 20 -325 17 -432
-6z m309 -118 c41 -30 71 -81 71 -121 0 -83 -67 -151 -149 -151 -159 0 -211
214 -68 281 50 23 108 20 146 -9z m-394 -196 c147 -39 251 -131 296 -258 7
-21 16 -38 19 -38 3 0 12 17 19 38 20 54 77 138 119 172 126 104 323 128 474
59 75 -35 161 -116 196 -185 47 -93 67 -213 52 -310 -23 -145 -92 -260 -251
-424 -56 -58 -126 -136 -157 -173 -30 -37 -57 -66 -59 -63 -11 10 87 179 160
275 134 176 178 263 197 389 9 54 8 83 -4 141 -28 131 -92 217 -205 270 -49
22 -69 26 -156 26 -134 -1 -196 -24 -280 -109 -33 -34 -70 -74 -83 -91 l-22
-30 -22 30 c-13 17 -50 57 -83 91 -84 84 -145 108 -280 108 -89 1 -107 -2
-162 -28 -107 -49 -172 -137 -199 -269 -32 -154 21 -306 181 -512 80 -104 175
-264 175 -295 0 -6 -28 24 -62 67 -35 43 -107 123 -162 178 -153 156 -222 275
-245 423 -36 235 100 457 319 518 60 17 164 17 225 0z m426 -502 c57 -37 96
-58 87 -47 -12 13 -18 36 -18 67 l0 47 53 -3 52 -3 3 -88 3 -88 64 -41 65 -40
0 -144 0 -144 -42 -20 c-23 -11 -43 -20 -45 -20 -2 0 -3 57 -3 128 l0 127
-161 103 c-101 64 -167 101 -177 97 -8 -3 -84 -49 -168 -103 l-153 -97 -3
-125 -3 -126 -42 18 -43 19 0 143 0 142 207 132 c114 73 210 132 213 132 4 0
53 -30 111 -66z m52 -188 l147 -95 0 -128 0 -128 -53 -35 c-28 -19 -55 -36
-59 -38 -3 -2 -12 14 -18 35 -16 50 -54 99 -90 118 -40 21 -136 19 -180 -3
-38 -19 -78 -72 -87 -115 -3 -15 -9 -30 -14 -33 -4 -2 -29 11 -54 31 -26 19
-51 35 -56 35 -6 0 -8 53 -7 132 l3 132 150 98 c83 53 155 95 161 93 6 -2 77
-46 157 -99z m-889 -271 c46 -94 132 -187 217 -238 65 -38 194 -86 204 -75 3
3 -12 31 -34 62 -37 54 -71 150 -57 164 4 3 31 -6 59 -21 126 -66 233 -179
278 -295 34 -84 34 -258 0 -360 -13 -40 -27 -74 -31 -77 -4 -2 -28 27 -54 65
-87 127 -216 230 -365 290 -63 25 -90 43 -131 86 -55 59 -101 147 -119 232
-10 48 -16 242 -8 242 2 0 21 -34 41 -75z m1486 -160 c-17 -88 -62 -178 -119
-239 -41 -43 -69 -60 -140 -90 -152 -63 -278 -166 -366 -299 -21 -32 -42 -54
-46 -50 -19 21 -51 147 -56 223 -10 160 35 279 147 390 62 62 179 140 209 140
31 0 -13 -128 -66 -191 -14 -16 -23 -33 -19 -36 11 -11 138 35 205 74 87 52
175 149 220 242 l36 76 3 -90 c2 -49 -2 -117 -8 -150z"/>
<path d="M2808 2944 c-39 -21 -38 -54 2 -54 28 0 30 3 30 35 0 19 -1 35 -2 35
-2 -1 -15 -8 -30 -16z"/>
<path d="M2860 2920 c0 -27 3 -30 30 -30 34 0 39 18 12 43 -28 25 -42 21 -42
-13z"/>
<path d="M2770 2840 c0 -28 3 -30 35 -30 32 0 35 2 35 30 0 28 -3 30 -35 30
-32 0 -35 -2 -35 -30z"/>
<path d="M2860 2840 c0 -27 3 -30 30 -30 27 0 30 3 30 30 0 27 -3 30 -30 30
-27 0 -30 -3 -30 -30z"/>
<path d="M1610 2614 c0 -17 22 -14 28 4 2 7 -3 12 -12 12 -9 0 -16 -7 -16 -16z"/>
<path d="M1785 2130 c-14 -15 -16 -23 -7 -32 14 -14 62 15 62 37 0 22 -34 18
-55 -5z"/>
<path d="M1900 2025 c0 -9 5 -15 11 -13 6 2 11 8 11 13 0 5 -5 11 -11 13 -6 2
-11 -4 -11 -13z"/>
<path d="M3756 2012 c-9 -14 24 -52 45 -52 24 0 25 22 1 43 -20 19 -38 22 -46
9z"/>
<path d="M3468 1784 c-4 -3 3 -21 14 -40 15 -26 24 -32 32 -24 8 8 7 18 -4 37
-16 27 -32 38 -42 27z"/>
<path d="M2477 1663 c-12 -11 -8 -23 8 -23 8 0 15 7 15 15 0 16 -12 20 -23 8z"/>
<path d="M2597 1633 c-13 -13 -7 -73 7 -73 16 0 26 21 26 56 0 23 -18 32 -33
17z"/>
<path d="M3042 1619 c2 -6 8 -10 13 -10 5 0 11 4 13 10 2 6 -4 11 -13 11 -9 0
-15 -5 -13 -11z"/>
</g>
</svg>
